<svg width="24" height="24" viewBox="0 0 24 24" fill="none" xmlns="http://www.w3.org/2000/svg">
<path d="M12 21.5709L3.51498 13.0859C2.38967 11.9607 1.75742 10.4346 1.75732 8.84328C1.75723 7.25194 2.3893 5.72574 3.51448 4.60043C4.63966 3.47511 6.16579 2.84287 7.75713 2.84277C9.34847 2.84268 10.8747 3.47475 12 4.59993C13.1258 3.47602 14.6517 2.84478 16.2425 2.84478C17.8333 2.84478 19.3591 3.47602 20.485 4.59993C21.6084 5.72604 22.2393 7.25177 22.2393 8.84243C22.2393 10.4331 21.6084 11.9588 20.485 13.0849L12 21.5709ZM7.75698 4.84293C6.96577 4.8429 6.19233 5.07752 5.53447 5.5171C4.87662 5.95669 4.36391 6.5815 4.06119 7.3125C3.75847 8.04351 3.67934 8.84787 3.8338 9.62385C3.98827 10.3998 4.3694 11.1126 4.92898 11.6719L12 18.7429L19.071 11.6719C19.4771 11.2748 19.794 10.7958 20.0006 10.2667C20.2072 9.7376 20.2988 9.17056 20.2691 8.60333C20.2395 8.0361 20.0895 7.48167 19.8289 6.97695C19.5684 6.47224 19.2033 6.0288 18.758 5.67614C18.3128 5.32349 17.7975 5.06971 17.2465 4.9317C16.6955 4.79369 16.1215 4.7746 15.5625 4.87571C15.0036 4.97683 14.4726 5.19582 14.0049 5.51812C13.5372 5.84042 13.1435 6.25863 12.85 6.74493L12 8.11693L11.15 6.74493C10.7991 6.15996 10.3014 5.67688 9.70621 5.3436C9.11104 5.01032 8.43908 4.83841 7.75698 4.84493V4.84293Z" fill="#F86338"/>
</svg>
