<svg width="32" height="32" viewBox="0 0 32 32" fill="none" xmlns="http://www.w3.org/2000/svg">
<path d="M15.9999 16.0003C17.3185 16.0003 18.6074 15.6093 19.7037 14.8768C20.8 14.1442 21.6545 13.1031 22.1591 11.8849C22.6637 10.6667 22.7957 9.32627 22.5385 8.03306C22.2813 6.73985 21.6463 5.55197 20.714 4.61962C19.7816 3.68727 18.5937 3.05233 17.3005 2.79509C16.0073 2.53786 14.6669 2.66988 13.4487 3.17447C12.2305 3.67905 11.1893 4.53353 10.4568 5.62986C9.72424 6.72619 9.33325 8.01512 9.33325 9.33366C9.33537 11.1011 10.0384 12.7956 11.2882 14.0454C12.538 15.2952 14.2325 15.9982 15.9999 16.0003ZM15.9999 5.33366C16.791 5.33366 17.5644 5.56826 18.2222 6.00778C18.88 6.44731 19.3927 7.07202 19.6954 7.80293C19.9982 8.53383 20.0774 9.3381 19.9231 10.114C19.7687 10.8899 19.3878 11.6027 18.8283 12.1621C18.2689 12.7215 17.5562 13.1025 16.7803 13.2568C16.0044 13.4111 15.2001 13.3319 14.4692 13.0292C13.7383 12.7264 13.1136 12.2137 12.674 11.5559C12.2345 10.8981 11.9999 10.1248 11.9999 9.33366C11.9999 8.2728 12.4213 7.25538 13.1715 6.50523C13.9216 5.75509 14.9391 5.33366 15.9999 5.33366Z" fill="black"/>
<path d="M27.9812 26.4465C27.4006 23.7474 25.8736 21.3451 23.6762 19.6737C21.4788 18.0023 18.756 17.1721 15.9999 17.3332C13.2438 17.1721 10.521 18.0023 8.32357 19.6737C6.12617 21.3451 4.59917 23.7474 4.01854 26.4465L3.75854 27.9998H28.2412L27.9812 26.4465ZM7.13055 25.3332C7.99055 23.2998 10.2665 19.9998 15.9999 19.9998C21.6812 19.9998 23.9772 23.2972 24.8545 25.3332H7.13055Z" fill="black"/>
</svg>
